<mxfile host="app.diagrams.net" agent="Mozilla/5.0 (Windows NT 10.0; Win64; x64) AppleWebKit/537.36 (KHTML, like Gecko) Chrome/141.0.0.0 Safari/537.36" version="28.2.0">
  <diagram name="Page-1" id="GZu9-66y6XsQQ8vjgCUL">
    <mxGraphModel dx="1426" dy="897" grid="1" gridSize="10" guides="1" tooltips="1" connect="1" arrows="1" fold="1" page="1" pageScale="1" pageWidth="827" pageHeight="1169" math="0" shadow="0">
      <root>
        <mxCell id="0" />
        <mxCell id="1" parent="0" />
        <mxCell id="qtT40M0BexdurqppFIiZ-7" value="1. Upload starter CSV" style="edgeStyle=orthogonalEdgeStyle;rounded=0;orthogonalLoop=1;jettySize=auto;html=1;" parent="1" source="qtT40M0BexdurqppFIiZ-1" target="qtT40M0BexdurqppFIiZ-6" edge="1">
          <mxGeometry relative="1" as="geometry" />
        </mxCell>
        <mxCell id="qtT40M0BexdurqppFIiZ-1" value="Developer" style="shape=umlActor;verticalLabelPosition=bottom;verticalAlign=top;html=1;" parent="1" vertex="1">
          <mxGeometry x="72.5" y="170" width="30" height="60" as="geometry" />
        </mxCell>
        <mxCell id="qtT40M0BexdurqppFIiZ-10" value="2. Import CSV" style="edgeStyle=orthogonalEdgeStyle;rounded=0;orthogonalLoop=1;jettySize=auto;html=1;" parent="1" source="qtT40M0BexdurqppFIiZ-6" target="qtT40M0BexdurqppFIiZ-8" edge="1">
          <mxGeometry relative="1" as="geometry" />
        </mxCell>
        <mxCell id="qtT40M0BexdurqppFIiZ-6" value="S3 for static storage" style="sketch=0;outlineConnect=0;fontColor=#232F3E;gradientColor=none;strokeColor=#ffffff;fillColor=#232F3E;dashed=0;verticalLabelPosition=middle;verticalAlign=bottom;align=center;html=1;whiteSpace=wrap;fontSize=10;fontStyle=1;spacing=3;shape=mxgraph.aws4.productIcon;prIcon=mxgraph.aws4.s3;" parent="1" vertex="1">
          <mxGeometry x="50" y="560" width="75" height="130" as="geometry" />
        </mxCell>
        <mxCell id="XkQh5Hgr6TkR7643bRTY-4" value="3. Pull PENDING items" style="edgeStyle=orthogonalEdgeStyle;rounded=0;orthogonalLoop=1;jettySize=auto;html=1;" parent="1" source="qtT40M0BexdurqppFIiZ-8" target="XkQh5Hgr6TkR7643bRTY-1" edge="1">
          <mxGeometry relative="1" as="geometry" />
        </mxCell>
        <mxCell id="qtT40M0BexdurqppFIiZ-8" value="DynamoDB: Player data store" style="sketch=0;outlineConnect=0;fontColor=#232F3E;gradientColor=none;strokeColor=#ffffff;fillColor=#232F3E;dashed=0;verticalLabelPosition=middle;verticalAlign=bottom;align=center;html=1;whiteSpace=wrap;fontSize=10;fontStyle=1;spacing=3;shape=mxgraph.aws4.productIcon;prIcon=mxgraph.aws4.dynamodb;" parent="1" vertex="1">
          <mxGeometry x="328" y="560" width="86" height="130" as="geometry" />
        </mxCell>
        <mxCell id="XkQh5Hgr6TkR7643bRTY-5" value="4. Push PENDING item IDs" style="edgeStyle=orthogonalEdgeStyle;rounded=0;orthogonalLoop=1;jettySize=auto;html=1;" parent="1" source="XkQh5Hgr6TkR7643bRTY-1" target="XkQh5Hgr6TkR7643bRTY-3" edge="1">
          <mxGeometry x="0.5122" relative="1" as="geometry">
            <mxPoint as="offset" />
          </mxGeometry>
        </mxCell>
        <mxCell id="XkQh5Hgr6TkR7643bRTY-1" value="Loader Job" style="sketch=0;outlineConnect=0;fontColor=#232F3E;gradientColor=none;strokeColor=#ffffff;fillColor=#232F3E;dashed=0;verticalLabelPosition=middle;verticalAlign=bottom;align=center;html=1;whiteSpace=wrap;fontSize=10;fontStyle=1;spacing=3;shape=mxgraph.aws4.productIcon;prIcon=mxgraph.aws4.lambda;" parent="1" vertex="1">
          <mxGeometry x="580" y="575" width="80" height="100" as="geometry" />
        </mxCell>
        <mxCell id="XkQh5Hgr6TkR7643bRTY-6" value="5. Pull IDs to fetch" style="edgeStyle=orthogonalEdgeStyle;rounded=0;orthogonalLoop=1;jettySize=auto;html=1;" parent="1" source="XkQh5Hgr6TkR7643bRTY-3" target="XkQh5Hgr6TkR7643bRTY-2" edge="1">
          <mxGeometry relative="1" as="geometry" />
        </mxCell>
        <mxCell id="XkQh5Hgr6TkR7643bRTY-9" value="6. Fetch every user" style="edgeStyle=orthogonalEdgeStyle;rounded=0;orthogonalLoop=1;jettySize=auto;html=1;" parent="1" source="XkQh5Hgr6TkR7643bRTY-2" target="XkQh5Hgr6TkR7643bRTY-7" edge="1">
          <mxGeometry relative="1" as="geometry" />
        </mxCell>
        <mxCell id="XkQh5Hgr6TkR7643bRTY-13" value=".&amp;nbsp;" style="edgeStyle=orthogonalEdgeStyle;rounded=0;orthogonalLoop=1;jettySize=auto;html=1;entryX=1;entryY=0.5;entryDx=0;entryDy=0;entryPerimeter=0;" parent="1" edge="1">
          <mxGeometry relative="1" as="geometry">
            <mxPoint x="415" y="220" as="targetPoint" />
            <mxPoint x="481" y="220" as="sourcePoint" />
          </mxGeometry>
        </mxCell>
        <mxCell id="XkQh5Hgr6TkR7643bRTY-22" value="7." style="edgeLabel;html=1;align=center;verticalAlign=middle;resizable=0;points=[];" parent="XkQh5Hgr6TkR7643bRTY-13" vertex="1" connectable="0">
          <mxGeometry x="-0.1212" y="4" relative="1" as="geometry">
            <mxPoint as="offset" />
          </mxGeometry>
        </mxCell>
        <mxCell id="XkQh5Hgr6TkR7643bRTY-2" value="Scraper Job" style="sketch=0;outlineConnect=0;fontColor=#232F3E;gradientColor=none;strokeColor=#ffffff;fillColor=#232F3E;dashed=0;verticalLabelPosition=middle;verticalAlign=bottom;align=center;html=1;whiteSpace=wrap;fontSize=10;fontStyle=1;spacing=3;shape=mxgraph.aws4.productIcon;prIcon=mxgraph.aws4.lambda;" parent="1" vertex="1">
          <mxGeometry x="480" y="170" width="80" height="100" as="geometry" />
        </mxCell>
        <mxCell id="XkQh5Hgr6TkR7643bRTY-3" value="SQS for temporay storage of IDs to fetch" style="sketch=0;outlineConnect=0;fontColor=#232F3E;gradientColor=none;strokeColor=#ffffff;fillColor=#232F3E;dashed=0;verticalLabelPosition=middle;verticalAlign=bottom;align=center;html=1;whiteSpace=wrap;fontSize=10;fontStyle=1;spacing=3;shape=mxgraph.aws4.productIcon;prIcon=mxgraph.aws4.sqs;" parent="1" vertex="1">
          <mxGeometry x="710" y="150" width="80" height="140" as="geometry" />
        </mxCell>
        <mxCell id="XkQh5Hgr6TkR7643bRTY-7" value="FFXIV website" style="image;aspect=fixed;perimeter=ellipsePerimeter;html=1;align=center;shadow=0;dashed=0;spacingTop=3;image=img/lib/active_directory/internet_cloud.svg;" parent="1" vertex="1">
          <mxGeometry x="480.63" y="30" width="79.37" height="50" as="geometry" />
        </mxCell>
        <mxCell id="XkQh5Hgr6TkR7643bRTY-12" value="No:&lt;br&gt;Delete item" style="edgeStyle=orthogonalEdgeStyle;rounded=0;orthogonalLoop=1;jettySize=auto;html=1;exitX=0.805;exitY=0.73;exitDx=0;exitDy=0;exitPerimeter=0;" parent="1" source="XkQh5Hgr6TkR7643bRTY-11" target="qtT40M0BexdurqppFIiZ-8" edge="1">
          <mxGeometry x="-0.0557" relative="1" as="geometry">
            <Array as="points">
              <mxPoint x="400" y="223" />
            </Array>
            <mxPoint as="offset" />
          </mxGeometry>
        </mxCell>
        <mxCell id="XkQh5Hgr6TkR7643bRTY-17" value="Yes:&lt;br&gt;Upload data&lt;br&gt;and mark DONE" style="edgeStyle=orthogonalEdgeStyle;rounded=0;orthogonalLoop=1;jettySize=auto;html=1;exitX=0.135;exitY=0.64;exitDx=0;exitDy=0;exitPerimeter=0;" parent="1" source="XkQh5Hgr6TkR7643bRTY-11" target="qtT40M0BexdurqppFIiZ-8" edge="1">
          <mxGeometry relative="1" as="geometry">
            <mxPoint x="330" y="550" as="targetPoint" />
            <Array as="points">
              <mxPoint x="329" y="210" />
              <mxPoint x="330" y="210" />
              <mxPoint x="330" y="400" />
              <mxPoint x="331" y="400" />
            </Array>
          </mxGeometry>
        </mxCell>
        <mxCell id="XkQh5Hgr6TkR7643bRTY-11" value="Is Player exists?" style="strokeWidth=2;html=1;shape=mxgraph.flowchart.decision;whiteSpace=wrap;" parent="1" vertex="1">
          <mxGeometry x="314" y="170" width="100" height="100" as="geometry" />
        </mxCell>
        <mxCell id="XkQh5Hgr6TkR7643bRTY-19" value="every 15 minutes" style="edgeStyle=orthogonalEdgeStyle;rounded=0;orthogonalLoop=1;jettySize=auto;html=1;" parent="1" source="XkQh5Hgr6TkR7643bRTY-18" target="XkQh5Hgr6TkR7643bRTY-1" edge="1">
          <mxGeometry relative="1" as="geometry" />
        </mxCell>
        <mxCell id="XkQh5Hgr6TkR7643bRTY-20" value="every 1&lt;span style=&quot;background-color: light-dark(#ffffff, var(--ge-dark-color, #121212)); color: light-dark(rgb(0, 0, 0), rgb(255, 255, 255));&quot;&gt;&amp;nbsp;minute&lt;/span&gt;" style="edgeStyle=orthogonalEdgeStyle;rounded=0;orthogonalLoop=1;jettySize=auto;html=1;" parent="1" source="XkQh5Hgr6TkR7643bRTY-18" target="XkQh5Hgr6TkR7643bRTY-2" edge="1">
          <mxGeometry relative="1" as="geometry" />
        </mxCell>
        <mxCell id="XkQh5Hgr6TkR7643bRTY-18" value="EventBridge hadnles scheduling" style="sketch=0;points=[[0,0,0],[0.25,0,0],[0.5,0,0],[0.75,0,0],[1,0,0],[0,1,0],[0.25,1,0],[0.5,1,0],[0.75,1,0],[1,1,0],[0,0.25,0],[0,0.5,0],[0,0.75,0],[1,0.25,0],[1,0.5,0],[1,0.75,0]];outlineConnect=0;fontColor=#232F3E;fillColor=#E7157B;strokeColor=#ffffff;dashed=0;verticalLabelPosition=bottom;verticalAlign=top;align=center;html=1;fontSize=12;fontStyle=0;aspect=fixed;shape=mxgraph.aws4.resourceIcon;resIcon=mxgraph.aws4.eventbridge;" parent="1" vertex="1">
          <mxGeometry x="520" y="380" width="78" height="78" as="geometry" />
        </mxCell>
        <mxCell id="rPAr4cUUft-26h-g9k3i-9" value="Send Email Notification" style="edgeStyle=orthogonalEdgeStyle;rounded=0;orthogonalLoop=1;jettySize=auto;html=1;" edge="1" parent="1" source="rPAr4cUUft-26h-g9k3i-1" target="rPAr4cUUft-26h-g9k3i-2">
          <mxGeometry relative="1" as="geometry" />
        </mxCell>
        <mxCell id="rPAr4cUUft-26h-g9k3i-1" value="SNS" style="sketch=0;points=[[0,0,0],[0.25,0,0],[0.5,0,0],[0.75,0,0],[1,0,0],[0,1,0],[0.25,1,0],[0.5,1,0],[0.75,1,0],[1,1,0],[0,0.25,0],[0,0.5,0],[0,0.75,0],[1,0.25,0],[1,0.5,0],[1,0.75,0]];outlineConnect=0;fontColor=#232F3E;fillColor=#E7157B;strokeColor=#ffffff;dashed=0;verticalLabelPosition=bottom;verticalAlign=top;align=center;html=1;fontSize=12;fontStyle=0;aspect=fixed;shape=mxgraph.aws4.resourceIcon;resIcon=mxgraph.aws4.sns;" vertex="1" parent="1">
          <mxGeometry x="430" y="760" width="78" height="78" as="geometry" />
        </mxCell>
        <mxCell id="rPAr4cUUft-26h-g9k3i-2" value="Dev Email" style="outlineConnect=0;dashed=0;verticalLabelPosition=bottom;verticalAlign=top;align=center;html=1;shape=mxgraph.aws3.email;fillColor=#D9A741;gradientColor=none;" vertex="1" parent="1">
          <mxGeometry x="700" y="768.25" width="81" height="61.5" as="geometry" />
        </mxCell>
        <mxCell id="rPAr4cUUft-26h-g9k3i-5" style="edgeStyle=orthogonalEdgeStyle;rounded=0;orthogonalLoop=1;jettySize=auto;html=1;entryX=0.384;entryY=0;entryDx=0;entryDy=0;entryPerimeter=0;" edge="1" parent="1" source="qtT40M0BexdurqppFIiZ-8" target="rPAr4cUUft-26h-g9k3i-3">
          <mxGeometry relative="1" as="geometry">
            <Array as="points">
              <mxPoint x="371" y="710" />
              <mxPoint x="240" y="710" />
            </Array>
          </mxGeometry>
        </mxCell>
        <mxCell id="rPAr4cUUft-26h-g9k3i-6" value="Watch Write Throughput" style="edgeLabel;html=1;align=center;verticalAlign=middle;resizable=0;points=[];" vertex="1" connectable="0" parent="rPAr4cUUft-26h-g9k3i-5">
          <mxGeometry y="1" relative="1" as="geometry">
            <mxPoint as="offset" />
          </mxGeometry>
        </mxCell>
        <mxCell id="rPAr4cUUft-26h-g9k3i-7" style="edgeStyle=orthogonalEdgeStyle;rounded=0;orthogonalLoop=1;jettySize=auto;html=1;" edge="1" parent="1" source="rPAr4cUUft-26h-g9k3i-3" target="rPAr4cUUft-26h-g9k3i-1">
          <mxGeometry relative="1" as="geometry" />
        </mxCell>
        <mxCell id="rPAr4cUUft-26h-g9k3i-8" value="Send alarm when&lt;div&gt;&amp;nbsp;throughput reaches&lt;/div&gt;&lt;div&gt;&amp;nbsp;zero&lt;/div&gt;" style="edgeLabel;html=1;align=center;verticalAlign=middle;resizable=0;points=[];" vertex="1" connectable="0" parent="rPAr4cUUft-26h-g9k3i-7">
          <mxGeometry x="0.1682" y="-2" relative="1" as="geometry">
            <mxPoint x="-15" y="-2" as="offset" />
          </mxGeometry>
        </mxCell>
        <mxCell id="rPAr4cUUft-26h-g9k3i-3" value="CloudWatch Alarm" style="sketch=0;outlineConnect=0;fontColor=#232F3E;gradientColor=none;fillColor=#E7157B;strokeColor=none;dashed=0;verticalLabelPosition=bottom;verticalAlign=top;align=center;html=1;fontSize=12;fontStyle=0;aspect=fixed;pointerEvents=1;shape=mxgraph.aws4.alarm;" vertex="1" parent="1">
          <mxGeometry x="210" y="760" width="78" height="78" as="geometry" />
        </mxCell>
        <mxCell id="rPAr4cUUft-26h-g9k3i-10" style="edgeStyle=orthogonalEdgeStyle;rounded=0;orthogonalLoop=1;jettySize=auto;html=1;" edge="1" parent="1">
          <mxGeometry relative="1" as="geometry">
            <mxPoint x="328" y="585" as="sourcePoint" />
            <mxPoint x="90" y="200" as="targetPoint" />
            <Array as="points">
              <mxPoint x="230" y="585" />
              <mxPoint x="230" y="200" />
              <mxPoint x="90" y="200" />
            </Array>
          </mxGeometry>
        </mxCell>
        <mxCell id="rPAr4cUUft-26h-g9k3i-11" value="8. Pull results" style="edgeLabel;html=1;align=center;verticalAlign=middle;resizable=0;points=[];" vertex="1" connectable="0" parent="rPAr4cUUft-26h-g9k3i-10">
          <mxGeometry x="0.1853" y="4" relative="1" as="geometry">
            <mxPoint as="offset" />
          </mxGeometry>
        </mxCell>
      </root>
    </mxGraphModel>
  </diagram>
</mxfile>
